<?xml version="1.0" encoding="UTF-8"?>
<!DOCTYPE svg PUBLIC "-//W3C//DTD SVG 1.1//EN" "http://www.w3.org/Graphics/SVG/1.1/DTD/svg11.dtd">
<svg xmlns="http://www.w3.org/2000/svg" version="1.1" width="200px" height="200px" style="shape-rendering:geometricPrecision; text-rendering:geometricPrecision; image-rendering:optimizeQuality; fill-rule:evenodd; clip-rule:evenodd" xmlns:xlink="http://www.w3.org/1999/xlink">
<g><path style="opacity:1" fill="#2264a2" d="M 99.5,-0.5 C 100.5,-0.5 101.5,-0.5 102.5,-0.5C 131.429,10.5373 160.429,21.704 189.5,33C 194.141,38.8544 193.308,43.6878 187,47.5C 184.879,51.9971 185.212,56.3305 188,60.5C 193.367,62.8398 195.7,66.8398 195,72.5C 164.465,100.703 133.632,128.537 102.5,156C 98.6836,156.401 95.017,155.734 91.5,154C 66.0281,144.237 40.6947,134.404 15.5,124.5C 15.0269,123.094 14.0269,122.427 12.5,122.5C 9.44055,120.603 7.27389,117.936 6,114.5C 4.95671,106.857 4.12337,99.1907 3.5,91.5C 3.31608,88.7954 3.98274,86.4621 5.5,84.5C 8.08917,83.5806 10.0892,81.914 11.5,79.5C 11.5,78.8333 11.8333,78.5 12.5,78.5C 16.4356,76.2343 19.7689,73.2343 22.5,69.5C 22.5,68.8333 22.8333,68.5 23.5,68.5C 27.1002,66.5698 30.1002,63.9031 32.5,60.5C 32.8333,59.5 33.5,58.8333 34.5,58.5C 38.1002,56.5698 41.1002,53.9031 43.5,50.5C 43.5,49.8333 43.8333,49.5 44.5,49.5C 48.4356,47.2343 51.7689,44.2343 54.5,40.5C 54.5,39.8333 54.8333,39.5 55.5,39.5C 59.1002,37.5698 62.1002,34.9031 64.5,31.5C 64.8333,30.5 65.5,29.8333 66.5,29.5C 70.1002,27.5698 73.1002,24.9031 75.5,21.5C 75.5,20.8333 75.8333,20.5 76.5,20.5C 80.4356,18.2343 83.7689,15.2343 86.5,11.5C 86.5,10.8333 86.8333,10.5 87.5,10.5C 91.4356,8.23427 94.7689,5.23427 97.5,1.5C 98.1667,0.833333 98.8333,0.166667 99.5,-0.5 Z M 177.5,56.5 C 178.167,57.1667 178.833,57.8333 179.5,58.5C 180.126,61.3149 181.46,63.8149 183.5,66C 182.944,66.3826 182.611,66.8826 182.5,67.5C 178.9,69.4302 175.9,72.0969 173.5,75.5C 172.5,75.8333 171.833,76.5 171.5,77.5C 167.9,79.4302 164.9,82.0969 162.5,85.5C 161.833,85.5 161.5,85.8333 161.5,86.5C 157.564,88.7657 154.231,91.7657 151.5,95.5C 150.833,95.5 150.5,95.8333 150.5,96.5C 146.9,98.4302 143.9,101.097 141.5,104.5C 140.5,104.833 139.833,105.5 139.5,106.5C 135.9,108.43 132.9,111.097 130.5,114.5C 129.833,114.5 129.5,114.833 129.5,115.5C 125.564,117.766 122.231,120.766 119.5,124.5C 118.833,124.5 118.5,124.833 118.5,125.5C 114.9,127.43 111.9,130.097 109.5,133.5C 108.5,133.833 107.833,134.5 107.5,135.5C 104.236,137.094 101.569,139.427 99.5,142.5C 98.4168,142.539 97.4168,142.873 96.5,143.5C 70.0054,133.838 43.8387,123.505 18,112.5C 16.8212,107.808 16.6545,103.141 17.5,98.5C 18.365,97.4173 19.365,97.2506 20.5,98C 46.1276,107.931 71.7942,117.765 97.5,127.5C 100.304,125.862 102.971,124.029 105.5,122C 129.37,99.96 153.37,78.1267 177.5,56.5 Z"/></g>
<g><path style="opacity:0.976" fill="#7196c1" d="M 97.5,1.5 C 94.7689,5.23427 91.4356,8.23427 87.5,10.5C 90.2311,6.76573 93.5644,3.76573 97.5,1.5 Z"/></g>
<g><path style="opacity:0.973" fill="#6e93bf" d="M 86.5,11.5 C 83.7689,15.2343 80.4356,18.2343 76.5,20.5C 79.2311,16.7657 82.5644,13.7657 86.5,11.5 Z"/></g>
<g><path style="opacity:0.976" fill="#6d93bf" d="M 75.5,21.5 C 73.1002,24.9031 70.1002,27.5698 66.5,29.5C 68.8998,26.0969 71.8998,23.4302 75.5,21.5 Z"/></g>
<g><path style="opacity:0.984" fill="#6a91bd" d="M 64.5,31.5 C 62.1002,34.9031 59.1002,37.5698 55.5,39.5C 57.8998,36.0969 60.8998,33.4302 64.5,31.5 Z"/></g>
<g><path style="opacity:0.961" fill="#6e93bf" d="M 54.5,40.5 C 51.7689,44.2343 48.4356,47.2343 44.5,49.5C 47.2311,45.7657 50.5644,42.7657 54.5,40.5 Z"/></g>
<g><path style="opacity:0.624" fill="#b1c8de" d="M 177.5,56.5 C 177.56,55.9569 177.893,55.6236 178.5,55.5C 179.386,56.325 179.719,57.325 179.5,58.5C 178.833,57.8333 178.167,57.1667 177.5,56.5 Z"/></g>
<g><path style="opacity:0.969" fill="#6d93bf" d="M 43.5,50.5 C 41.1002,53.9031 38.1002,56.5698 34.5,58.5C 36.8998,55.0969 39.8998,52.4302 43.5,50.5 Z"/></g>
<g><path style="opacity:0.976" fill="#6a91bd" d="M 32.5,60.5 C 30.1002,63.9031 27.1002,66.5698 23.5,68.5C 25.8998,65.0969 28.8998,62.4302 32.5,60.5 Z"/></g>
<g><path style="opacity:1" fill="#6f94c0" d="M 182.5,67.5 C 180.1,70.9031 177.1,73.5698 173.5,75.5C 175.9,72.0969 178.9,69.4302 182.5,67.5 Z"/></g>
<g><path style="opacity:0.973" fill="#6d93bf" d="M 22.5,69.5 C 19.7689,73.2343 16.4356,76.2343 12.5,78.5C 15.2311,74.7657 18.5644,71.7657 22.5,69.5 Z"/></g>
<g><path style="opacity:1" fill="#376ea8" d="M 192.5,81.5 C 192.328,86.2087 190.161,89.8754 186,92.5C 185.183,95.9643 185.517,99.2976 187,102.5C 189.628,104.126 191.961,106.126 194,108.5C 195.373,110.695 195.706,113.029 195,115.5C 164.304,143.366 133.804,171.366 103.5,199.5C 101.167,199.5 98.8333,199.5 96.5,199.5C 68.9722,188.596 41.3055,177.763 13.5,167C 10.2379,164.408 7.73791,161.241 6,157.5C 4.89156,149.866 4.05823,142.2 3.5,134.5C 3.31608,131.795 3.98274,129.462 5.5,127.5C 7.31455,126.37 9.31455,125.704 11.5,125.5C 40.0297,136.928 68.6963,148.095 97.5,159C 99.1667,159.667 100.833,159.667 102.5,159C 104.351,157.248 106.351,155.748 108.5,154.5C 112.1,152.57 115.1,149.903 117.5,146.5C 117.833,145.5 118.5,144.833 119.5,144.5C 122.764,142.906 125.431,140.573 127.5,137.5C 127.833,136.5 128.5,135.833 129.5,135.5C 133.1,133.57 136.1,130.903 138.5,127.5C 138.5,126.833 138.833,126.5 139.5,126.5C 143.1,124.57 146.1,121.903 148.5,118.5C 148.833,117.5 149.5,116.833 150.5,116.5C 154.1,114.57 157.1,111.903 159.5,108.5C 159.5,107.833 159.833,107.5 160.5,107.5C 164.436,105.234 167.769,102.234 170.5,98.5C 170.5,97.8333 170.833,97.5 171.5,97.5C 175.1,95.5698 178.1,92.9031 180.5,89.5C 180.5,88.8333 180.833,88.5 181.5,88.5C 185.067,86.4434 188.234,83.7768 191,80.5C 191.383,81.056 191.883,81.3893 192.5,81.5 Z M 177.5,99.5 C 178.167,100.167 178.833,100.833 179.5,101.5C 179.642,104.617 180.976,107.117 183.5,109C 181.959,110.371 180.625,111.871 179.5,113.5C 175.9,115.43 172.9,118.097 170.5,121.5C 169.833,121.5 169.5,121.833 169.5,122.5C 165.9,124.43 162.9,127.097 160.5,130.5C 159.5,130.833 158.833,131.5 158.5,132.5C 155.236,134.094 152.569,136.427 150.5,139.5C 149.5,139.833 148.833,140.5 148.5,141.5C 144.9,143.43 141.9,146.097 139.5,149.5C 138.5,149.833 137.833,150.5 137.5,151.5C 133.9,153.43 130.9,156.097 128.5,159.5C 127.5,159.833 126.833,160.5 126.5,161.5C 123.236,163.094 120.569,165.427 118.5,168.5C 117.5,168.833 116.833,169.5 116.5,170.5C 112.9,172.43 109.9,175.097 107.5,178.5C 106.5,178.833 105.833,179.5 105.5,180.5C 102.911,181.419 100.911,183.086 99.5,185.5C 96.7947,186.777 94.128,186.61 91.5,185C 67.4609,175.931 43.4609,166.765 19.5,157.5C 18.8076,156.975 18.3076,156.308 18,155.5C 17.0954,151.181 16.7621,146.848 17,142.5C 17.6667,141.833 18.3333,141.167 19,140.5C 44.4296,150.463 69.9296,160.296 95.5,170C 96.8333,170.667 98.1667,170.667 99.5,170C 125.695,146.634 151.695,123.134 177.5,99.5 Z"/></g>
<g><path style="opacity:0.839" fill="#84a6ca" d="M 11.5,79.5 C 10.0892,81.914 8.08917,83.5806 5.5,84.5C 6.91083,82.086 8.91083,80.4194 11.5,79.5 Z"/></g>
<g><path style="opacity:1" fill="#6b92be" d="M 171.5,77.5 C 169.1,80.9031 166.1,83.5698 162.5,85.5C 164.9,82.0969 167.9,79.4302 171.5,77.5 Z"/></g>
<g><path style="opacity:0.984" fill="#779ac3" d="M 192.5,81.5 C 191.883,81.3893 191.383,81.056 191,80.5C 188.234,83.7768 185.067,86.4434 181.5,88.5C 184.178,84.9885 187.345,81.9885 191,79.5C 192.03,79.8361 192.53,80.5028 192.5,81.5 Z"/></g>
<g><path style="opacity:0.98" fill="#6f94c0" d="M 161.5,86.5 C 158.769,90.2343 155.436,93.2343 151.5,95.5C 154.231,91.7657 157.564,88.7657 161.5,86.5 Z"/></g>
<g><path style="opacity:1" fill="#6e94bf" d="M 180.5,89.5 C 178.1,92.9031 175.1,95.5698 171.5,97.5C 173.9,94.0969 176.9,91.4302 180.5,89.5 Z"/></g>
<g><path style="opacity:0.655" fill="#a5c0d9" d="M 177.5,99.5 C 177.56,98.9569 177.893,98.6236 178.5,98.5C 179.386,99.325 179.719,100.325 179.5,101.5C 178.833,100.833 178.167,100.167 177.5,99.5 Z"/></g>
<g><path style="opacity:1" fill="#6f94c0" d="M 150.5,96.5 C 148.1,99.9031 145.1,102.57 141.5,104.5C 143.9,101.097 146.9,98.4302 150.5,96.5 Z"/></g>
<g><path style="opacity:1" fill="#7196c1" d="M 170.5,98.5 C 167.769,102.234 164.436,105.234 160.5,107.5C 163.231,103.766 166.564,100.766 170.5,98.5 Z"/></g>
<g><path style="opacity:0.996" fill="#6b92be" d="M 139.5,106.5 C 137.1,109.903 134.1,112.57 130.5,114.5C 132.9,111.097 135.9,108.43 139.5,106.5 Z"/></g>
<g><path style="opacity:1" fill="#7095c0" d="M 159.5,108.5 C 157.1,111.903 154.1,114.57 150.5,116.5C 152.9,113.097 155.9,110.43 159.5,108.5 Z"/></g>
<g><path style="opacity:1" fill="#6a91bd" d="M 179.5,113.5 C 177.1,116.903 174.1,119.57 170.5,121.5C 172.9,118.097 175.9,115.43 179.5,113.5 Z"/></g>
<g><path style="opacity:0.984" fill="#6f94c0" d="M 129.5,115.5 C 126.769,119.234 123.436,122.234 119.5,124.5C 122.231,120.766 125.564,117.766 129.5,115.5 Z"/></g>
<g><path style="opacity:0.427" fill="#a5bfd9" d="M 12.5,122.5 C 14.0269,122.427 15.0269,123.094 15.5,124.5C 13.9731,124.573 12.9731,123.906 12.5,122.5 Z"/></g>
<g><path style="opacity:0.667" fill="#96b3d2" d="M 11.5,125.5 C 9.31455,125.704 7.31455,126.37 5.5,127.5C 6.50773,125.661 8.00773,124.328 10,123.5C 10.7172,124.044 11.2172,124.711 11.5,125.5 Z"/></g>
<g><path style="opacity:1" fill="#6c92be" d="M 148.5,118.5 C 146.1,121.903 143.1,124.57 139.5,126.5C 141.9,123.097 144.9,120.43 148.5,118.5 Z"/></g>
<g><path style="opacity:0.996" fill="#7196c0" d="M 169.5,122.5 C 167.1,125.903 164.1,128.57 160.5,130.5C 162.9,127.097 165.9,124.43 169.5,122.5 Z"/></g>
<g><path style="opacity:0.976" fill="#6f94c0" d="M 118.5,125.5 C 116.1,128.903 113.1,131.57 109.5,133.5C 111.9,130.097 114.9,127.43 118.5,125.5 Z"/></g>
<g><path style="opacity:0.992" fill="#7297c1" d="M 138.5,127.5 C 136.1,130.903 133.1,133.57 129.5,135.5C 131.9,132.097 134.9,129.43 138.5,127.5 Z"/></g>
<g><path style="opacity:0.839" fill="#7fa1c7" d="M 158.5,132.5 C 156.431,135.573 153.764,137.906 150.5,139.5C 152.569,136.427 155.236,134.094 158.5,132.5 Z"/></g>
<g><path style="opacity:0.839" fill="#7da0c6" d="M 107.5,135.5 C 105.431,138.573 102.764,140.906 99.5,142.5C 101.569,139.427 104.236,137.094 107.5,135.5 Z"/></g>
<g><path style="opacity:0.808" fill="#7fa1c7" d="M 127.5,137.5 C 125.431,140.573 122.764,142.906 119.5,144.5C 121.569,141.427 124.236,139.094 127.5,137.5 Z"/></g>
<g><path style="opacity:1" fill="#7499c2" d="M 148.5,141.5 C 146.1,144.903 143.1,147.57 139.5,149.5C 141.9,146.097 144.9,143.43 148.5,141.5 Z"/></g>
<g><path style="opacity:0.996" fill="#7398c2" d="M 117.5,146.5 C 115.1,149.903 112.1,152.57 108.5,154.5C 110.9,151.097 113.9,148.43 117.5,146.5 Z"/></g>
<g><path style="opacity:1" fill="#7196c0" d="M 137.5,151.5 C 135.1,154.903 132.1,157.57 128.5,159.5C 130.9,156.097 133.9,153.43 137.5,151.5 Z"/></g>
<g><path style="opacity:0.847" fill="#7fa1c7" d="M 126.5,161.5 C 124.431,164.573 121.764,166.906 118.5,168.5C 120.569,165.427 123.236,163.094 126.5,161.5 Z"/></g>
<g><path style="opacity:1" fill="#7499c2" d="M 116.5,170.5 C 114.1,173.903 111.1,176.57 107.5,178.5C 109.9,175.097 112.9,172.43 116.5,170.5 Z"/></g>
<g><path style="opacity:0.82" fill="#88a9cc" d="M 105.5,180.5 C 104.089,182.914 102.089,184.581 99.5,185.5C 100.911,183.086 102.911,181.419 105.5,180.5 Z"/></g>
</svg>
